<?xml version="1.0" encoding="UTF-8" standalone="no"?>
<!DOCTYPE svg PUBLIC "-//W3C//DTD SVG 1.1//EN"
 "http://www.w3.org/Graphics/SVG/1.1/DTD/svg11.dtd">
<!-- Generated by graphviz version 2.43.0 (0)
 -->
<!-- Title: Libraries/standard Pages: 1 -->
<svg width="260pt" height="111pt"
 viewBox="0.00 0.00 260.00 111.00" xmlns="http://www.w3.org/2000/svg" xmlns:xlink="http://www.w3.org/1999/xlink">
<g id="graph0" class="graph" transform="scale(1 1) rotate(0) translate(4 107)">
<title>Libraries/standard</title>
<polygon fill="white" stroke="transparent" points="-4,4 -4,-107 256,-107 256,4 -4,4"/>
<g id="clust1" class="cluster">
<title>clusterdir_6d2d5b60bd20db849a9486835a2715aa</title>
<g id="a_clust1"><a xlink:href="dir_6d2d5b60bd20db849a9486835a2715aa.html" target="_top" xlink:title="Libraries">
<polygon fill="#edf0f7" stroke="#404040" stroke-dasharray="5,2" points="8,-8 8,-95 244,-95 244,-8 8,-8"/>
<text text-anchor="middle" x="126" y="-83" font-family="Helvetica,sans-Serif" font-size="10.00">Libraries</text>
</a>
</g>
</g>
<g id="clust2" class="cluster">
<title>clusterdir_67f411d180dec1b969cb1516a707a823</title>
<g id="a_clust2"><a xlink:href="dir_67f411d180dec1b969cb1516a707a823.html" target="_top">
<polygon fill="#edf0f7" stroke="#404040" stroke-width="2" points="16,-16 16,-68 236,-68 236,-16 16,-16"/>
</a>
</g>
</g>
<!-- dir_67f411d180dec1b969cb1516a707a823 -->
<g id="node1" class="node">
<title>dir_67f411d180dec1b969cb1516a707a823</title>
<text text-anchor="middle" x="198" y="-39.5" font-family="Helvetica,sans-Serif" font-size="10.00">standard</text>
</g>
<!-- dir_e8d7b40ccb72b24031c3a48d5b9bf4c2 -->
<g id="node2" class="node">
<title>dir_e8d7b40ccb72b24031c3a48d5b9bf4c2</title>
<g id="a_node2"><a xlink:href="dir_e8d7b40ccb72b24031c3a48d5b9bf4c2.html" target="_top" xlink:title="SG3">
<polygon fill="#a2b4d6" stroke="#404040" points="150,-60 96,-60 96,-24 150,-24 150,-60"/>
<text text-anchor="middle" x="123" y="-39.5" font-family="Helvetica,sans-Serif" font-size="10.00">SG3</text>
</a>
</g>
</g>
<!-- dir_9d60fbb2aa09141480d4c296a7b8d2f8 -->
<g id="node3" class="node">
<title>dir_9d60fbb2aa09141480d4c296a7b8d2f8</title>
<g id="a_node3"><a xlink:href="dir_9d60fbb2aa09141480d4c296a7b8d2f8.html" target="_top" xlink:title="SG4">
<polygon fill="#a2b4d6" stroke="#404040" points="78,-60 24,-60 24,-24 78,-24 78,-60"/>
<text text-anchor="middle" x="51" y="-39.5" font-family="Helvetica,sans-Serif" font-size="10.00">SG4</text>
</a>
</g>
</g>
</g>
</svg>
