<?xml version="1.0" encoding="us-ascii" standalone="no"?><svg xmlns="http://www.w3.org/2000/svg" xmlns:xlink="http://www.w3.org/1999/xlink" contentStyleType="text/css" height="452px" preserveAspectRatio="none" style="width:519px;height:452px;" version="1.1" viewBox="0 0 519 452" width="519px" zoomAndPan="magnify"><defs/><g><ellipse cx="250.25" cy="20" fill="#FFF2CC" rx="10" ry="10" style="stroke:#222222;stroke-width:1.0;"/><polygon fill="#FAC385" points="178.25,50,322.25,50,334.25,62,322.25,74,178.25,74,166.25,62,178.25,50" style="stroke:#B46504;stroke-width:0.5;"/><text fill="#000000" font-family="arial" font-size="11" lengthAdjust="spacing" textLength="82" x="178.25" y="66.268">Stav automatu (</text><text fill="#000000" font-family="arial" font-size="11" font-style="italic" lengthAdjust="spacing" textLength="59" x="260.25" y="66.268">case4button</text><text fill="#000000" font-family="arial" font-size="11" lengthAdjust="spacing" textLength="3" x="319.25" y="66.268">)</text><rect fill="#FFF2CC" height="36.3441" rx="12.5" ry="12.5" style="stroke:#181818;stroke-width:0.5;" width="113" x="11" y="113.9638"/><text fill="#000000" font-family="arial" font-size="12" lengthAdjust="spacing" textLength="93" x="21" y="136.7919">case4button:=10</text><rect fill="#FFF2CC" height="69.0323" rx="12.5" ry="12.5" style="stroke:#181818;stroke-width:0.5;" width="126" x="141" y="113.9638"/><text fill="#000000" font-family="arial" font-size="12" lengthAdjust="spacing" textLength="69" x="151" y="136.7919">Start Mixeru</text><text fill="#000000" font-family="arial" font-size="12" font-style="italic" lengthAdjust="spacing" textLength="84" x="151" y="153.136">doMotor:=TRUE</text><text fill="#000000" font-family="arial" font-size="12" font-style="italic" lengthAdjust="spacing" textLength="106" x="151" y="169.4801">startCasovac:=TRUE</text><rect fill="#FFF2CC" height="52.6882" rx="12.5" ry="12.5" style="stroke:#181818;stroke-width:0.5;" width="137" x="135.5" y="258.4508"/><text fill="#000000" font-family="arial" font-size="12" lengthAdjust="spacing" textLength="117" x="145.5" y="281.2789">startCasovac:=FALSE</text><text fill="#000000" font-family="arial" font-size="12" lengthAdjust="spacing" textLength="86" x="145.5" y="297.623">case4button:=0</text><polygon fill="#FAC385" points="146,202.9961,262,202.9961,274,217.978,262,232.9599,146,232.9599,134,217.978,146,202.9961" style="stroke:#B46504;stroke-width:0.5;"/><text fill="#000000" font-family="arial" font-size="11" lengthAdjust="spacing" textLength="17" x="208" y="244.7188">Yes</text><text fill="#000000" font-family="arial" font-size="11" lengthAdjust="spacing" textLength="116" x="146" y="214.755">Doba casovace ubehla</text><text fill="#000000" font-family="arial" font-size="11" font-style="italic" lengthAdjust="spacing" textLength="63" x="146" y="229.7369">TON_Mixer.Q</text><text fill="#000000" font-family="arial" font-size="11" lengthAdjust="spacing" textLength="15" x="274" y="214.755">No</text><polygon fill="#FAC385" points="204,331.1391,216,343.1391,204,355.1391,192,343.1391,204,331.1391" style="stroke:#B46504;stroke-width:0.5;"/><rect fill="#FFF2CC" height="52.6882" rx="12.5" ry="12.5" style="stroke:#181818;stroke-width:0.5;" width="187" x="321" y="113.9638"/><text fill="#000000" font-family="arial" font-size="12" lengthAdjust="spacing" textLength="167" x="331" y="136.7919">Prechod do pocatecniho stavu</text><text fill="#000000" font-family="arial" font-size="12" font-style="italic" lengthAdjust="spacing" textLength="83" x="331" y="153.136">case4button:=0</text><polygon fill="#FAC385" points="250.25,375.1391,250.25,375.1391,262.25,387.1391,250.25,399.1391,250.25,399.1391,238.25,387.1391,250.25,375.1391" style="stroke:#B46504;stroke-width:0.5;"/><ellipse cx="250.25" cy="430.1391" fill="none" rx="11" ry="11" style="stroke:#222222;stroke-width:1.0;"/><ellipse cx="250.25" cy="430.1391" fill="#FFF2CC" rx="6" ry="6" style="stroke:#222222;stroke-width:1.0;"/><line style="stroke:#181818;stroke-width:1.0;" x1="204" x2="204" y1="232.9599" y2="258.4508"/><polygon fill="#181818" points="200,248.4508,204,258.4508,208,248.4508,204,252.4508" style="stroke:#181818;stroke-width:1.0;"/><line style="stroke:#181818;stroke-width:1.0;" x1="274" x2="286" y1="217.978" y2="217.978"/><polygon fill="#181818" points="282,273.304,286,283.304,290,273.304,286,277.304" style="stroke:#181818;stroke-width:1.0;"/><line style="stroke:#181818;stroke-width:1.0;" x1="286" x2="286" y1="217.978" y2="343.1391"/><line style="stroke:#181818;stroke-width:1.0;" x1="286" x2="216" y1="343.1391" y2="343.1391"/><polygon fill="#181818" points="226,339.1391,216,343.1391,226,347.1391,222,343.1391" style="stroke:#181818;stroke-width:1.0;"/><line style="stroke:#181818;stroke-width:1.0;" x1="204" x2="204" y1="311.1391" y2="331.1391"/><polygon fill="#181818" points="200,321.1391,204,331.1391,208,321.1391,204,325.1391" style="stroke:#181818;stroke-width:1.0;"/><line style="stroke:#181818;stroke-width:1.0;" x1="204" x2="204" y1="182.9961" y2="202.9961"/><polygon fill="#181818" points="200,192.9961,204,202.9961,208,192.9961,204,196.9961" style="stroke:#181818;stroke-width:1.0;"/><line style="stroke:#181818;stroke-width:1.0;" x1="166.25" x2="67.5" y1="62" y2="62"/><line style="stroke:#181818;stroke-width:1.0;" x1="67.5" x2="67.5" y1="62" y2="113.9638"/><polygon fill="#181818" points="63.5,103.9638,67.5,113.9638,71.5,103.9638,67.5,107.9638" style="stroke:#181818;stroke-width:1.0;"/><text fill="#000000" font-family="arial" font-size="11" lengthAdjust="spacing" textLength="48" x="67.5" y="92.2499">0 (cekani)</text><line style="stroke:#181818;stroke-width:1.0;" x1="334.25" x2="414.5" y1="62" y2="62"/><line style="stroke:#181818;stroke-width:1.0;" x1="414.5" x2="414.5" y1="62" y2="113.9638"/><polygon fill="#181818" points="410.5,103.9638,414.5,113.9638,418.5,103.9638,414.5,107.9638" style="stroke:#181818;stroke-width:1.0;"/><text fill="#000000" font-family="arial" font-size="11" lengthAdjust="spacing" textLength="70" x="414.5" y="92.2499">neplatny stav</text><line style="stroke:#181818;stroke-width:1.0;" x1="250.25" x2="250.25" y1="74" y2="87.3213"/><line style="stroke:#181818;stroke-width:1.0;" x1="250.25" x2="204" y1="87.3213" y2="87.3213"/><line style="stroke:#181818;stroke-width:1.0;" x1="204" x2="204" y1="87.3213" y2="113.9638"/><polygon fill="#181818" points="200,103.9638,204,113.9638,208,103.9638,204,107.9638" style="stroke:#181818;stroke-width:1.0;"/><text fill="#000000" font-family="arial" font-size="11" lengthAdjust="spacing" textLength="97" x="204" y="93.2499">10 (Zapnuty mixer)</text><line style="stroke:#181818;stroke-width:1.0;" x1="67.5" x2="67.5" y1="150.3079" y2="387.1391"/><line style="stroke:#181818;stroke-width:1.0;" x1="67.5" x2="238.25" y1="387.1391" y2="387.1391"/><polygon fill="#181818" points="228.25,383.1391,238.25,387.1391,228.25,391.1391,232.25,387.1391" style="stroke:#181818;stroke-width:1.0;"/><line style="stroke:#181818;stroke-width:1.0;" x1="414.5" x2="414.5" y1="166.652" y2="387.1391"/><line style="stroke:#181818;stroke-width:1.0;" x1="414.5" x2="262.25" y1="387.1391" y2="387.1391"/><polygon fill="#181818" points="272.25,383.1391,262.25,387.1391,272.25,391.1391,268.25,387.1391" style="stroke:#181818;stroke-width:1.0;"/><line style="stroke:#181818;stroke-width:1.0;" x1="204" x2="204" y1="355.1391" y2="360.1391"/><line style="stroke:#181818;stroke-width:1.0;" x1="204" x2="250.25" y1="360.1391" y2="360.1391"/><line style="stroke:#181818;stroke-width:1.0;" x1="250.25" x2="250.25" y1="360.1391" y2="375.1391"/><polygon fill="#181818" points="246.25,365.1391,250.25,375.1391,254.25,365.1391,250.25,369.1391" style="stroke:#181818;stroke-width:1.0;"/><line style="stroke:#181818;stroke-width:1.0;" x1="250.25" x2="250.25" y1="30" y2="50"/><polygon fill="#181818" points="246.25,40,250.25,50,254.25,40,250.25,44" style="stroke:#181818;stroke-width:1.0;"/><line style="stroke:#181818;stroke-width:1.0;" x1="250.25" x2="250.25" y1="399.1391" y2="419.1391"/><polygon fill="#181818" points="246.25,409.1391,250.25,419.1391,254.25,409.1391,250.25,413.1391" style="stroke:#181818;stroke-width:1.0;"/><!--SRC=[RP11Rzim38Nl-XLiTt4kKxebmP2s0zAqsIL9joGTi5q6Mg9ZeRPeoBIxODX_dvowG3CKEaXyVFpqf3DBcVC4s-zVr5b_VjWi5_URrMm7vtMxFrTNjHmA-gpGY6kT76uTxWEMy4VTe7dS1swydNF10TvbMVR167N3mLBeDJj99-E9Mh2NNXaUYpMM11WS5iewBDdRjuYBsVpZfx5Qnc2zaeucu-7e5Iyjuj3_oBznMJPDILxUu4f0NrSOOZSQhtJ_H5KB1edRanEJGx8LR04RuHAbWKHhWpMDqaQ4lTQ3WUfgI8QG67f4xw8oVMMPNbyCBrLlkeYkdrZvHWvGkjyKElEskmzMNTaehIslM3XChtURXpkjet8CDCUQMpGlygLo6IItd2AOvmv1ar9UO1pOtQz_7NdllyM483bvI7vG7IyxPIrco-sTEaaRmrBHPLtpG96tBdi9xwagKFm18gEDgA-1JCuMB4F51eMCTpaVkzqxJgbTuaXx_bJLVJ9N_m00]--></g></svg>