<?xml version="1.0" encoding="us-ascii" standalone="no"?><svg xmlns="http://www.w3.org/2000/svg" xmlns:xlink="http://www.w3.org/1999/xlink" contentStyleType="text/css" height="452px" preserveAspectRatio="none" style="width:618px;height:452px;" version="1.1" viewBox="0 0 618 452" width="618px" zoomAndPan="magnify"><defs/><g><ellipse cx="313" cy="20" fill="#FFF2CC" rx="10" ry="10" style="stroke:#222222;stroke-width:1.0;"/><polygon fill="#FAC385" points="241,50,385,50,397,62,385,74,241,74,229,62,241,50" style="stroke:#B46504;stroke-width:0.5;"/><text fill="#000000" font-family="arial" font-size="11" lengthAdjust="spacing" textLength="82" x="241" y="66.268">Stav automatu (</text><text fill="#000000" font-family="arial" font-size="11" font-style="italic" lengthAdjust="spacing" textLength="59" x="323" y="66.268">case4button</text><text fill="#000000" font-family="arial" font-size="11" lengthAdjust="spacing" textLength="3" x="382" y="66.268">)</text><rect fill="#FFF2CC" height="69.0323" rx="12.5" ry="12.5" style="stroke:#181818;stroke-width:0.5;" width="208" x="11" y="113.9638"/><text fill="#000000" font-family="arial" font-size="12" lengthAdjust="spacing" textLength="93" x="21" y="136.7919">case4button:=10</text><a href="./md__rizeni__action.html" target="_top" title="./md__rizeni__action.html" xlink:actuate="onRequest" xlink:href="./md__rizeni__action.html" xlink:show="new" xlink:title="./md__rizeni__action.html" xlink:type="simple"><text fill="#0000FF" font-family="arial" font-size="12" font-style="italic" lengthAdjust="spacing" text-decoration="underline" textLength="54" x="21" y="153.136">Podminky</text></a><a href="./md__rizeni__library__cykly.html" target="_top" title="./md__rizeni__library__cykly.html" xlink:actuate="onRequest" xlink:href="./md__rizeni__library__cykly.html" xlink:show="new" xlink:title="./md__rizeni__library__cykly.html" xlink:type="simple"><text fill="#0000FF" font-family="arial" font-size="12" font-style="italic" lengthAdjust="spacing" text-decoration="underline" textLength="28" x="21" y="169.4801">Cykly</text></a><text fill="#000000" font-family="arial" font-size="12" font-style="italic" lengthAdjust="spacing" textLength="160" x="49" y="169.4801">(btnStart,LedBottomRightRed)</text><rect fill="#FFF2CC" height="69.0323" rx="12.5" ry="12.5" style="stroke:#181818;stroke-width:0.5;" width="126" x="251.25" y="113.9638"/><text fill="#000000" font-family="arial" font-size="12" lengthAdjust="spacing" textLength="69" x="261.25" y="136.7919">Start Mixeru</text><text fill="#000000" font-family="arial" font-size="12" font-style="italic" lengthAdjust="spacing" textLength="84" x="261.25" y="153.136">doMotor:=TRUE</text><text fill="#000000" font-family="arial" font-size="12" font-style="italic" lengthAdjust="spacing" textLength="106" x="261.25" y="169.4801">startCasovac:=TRUE</text><rect fill="#FFF2CC" height="52.6882" rx="12.5" ry="12.5" style="stroke:#181818;stroke-width:0.5;" width="137" x="245.75" y="258.4508"/><text fill="#000000" font-family="arial" font-size="12" lengthAdjust="spacing" textLength="117" x="255.75" y="281.2789">startCasovac:=FALSE</text><text fill="#000000" font-family="arial" font-size="12" lengthAdjust="spacing" textLength="86" x="255.75" y="297.623">case4button:=0</text><polygon fill="#FAC385" points="256.25,202.9961,372.25,202.9961,384.25,217.978,372.25,232.9599,256.25,232.9599,244.25,217.978,256.25,202.9961" style="stroke:#B46504;stroke-width:0.5;"/><text fill="#000000" font-family="arial" font-size="11" lengthAdjust="spacing" textLength="17" x="318.25" y="244.7188">Yes</text><text fill="#000000" font-family="arial" font-size="11" lengthAdjust="spacing" textLength="116" x="256.25" y="214.755">Doba casovace ubehla</text><text fill="#000000" font-family="arial" font-size="11" font-style="italic" lengthAdjust="spacing" textLength="63" x="256.25" y="229.7369">TON_Mixer.Q</text><text fill="#000000" font-family="arial" font-size="11" lengthAdjust="spacing" textLength="15" x="384.25" y="214.755">No</text><polygon fill="#FAC385" points="314.25,331.1391,326.25,343.1391,314.25,355.1391,302.25,343.1391,314.25,331.1391" style="stroke:#B46504;stroke-width:0.5;"/><rect fill="#FFF2CC" height="52.6882" rx="12.5" ry="12.5" style="stroke:#181818;stroke-width:0.5;" width="187" x="420" y="113.9638"/><text fill="#000000" font-family="arial" font-size="12" lengthAdjust="spacing" textLength="167" x="430" y="136.7919">Prechod do pocatecniho stavu</text><text fill="#000000" font-family="arial" font-size="12" font-style="italic" lengthAdjust="spacing" textLength="83" x="430" y="153.136">case4button:=0</text><polygon fill="#FAC385" points="313,375.1391,313,375.1391,325,387.1391,313,399.1391,313,399.1391,301,387.1391,313,375.1391" style="stroke:#B46504;stroke-width:0.5;"/><ellipse cx="313" cy="430.1391" fill="none" rx="11" ry="11" style="stroke:#222222;stroke-width:1.0;"/><ellipse cx="313" cy="430.1391" fill="#FFF2CC" rx="6" ry="6" style="stroke:#222222;stroke-width:1.0;"/><line style="stroke:#181818;stroke-width:1.0;" x1="314.25" x2="314.25" y1="232.9599" y2="258.4508"/><polygon fill="#181818" points="310.25,248.4508,314.25,258.4508,318.25,248.4508,314.25,252.4508" style="stroke:#181818;stroke-width:1.0;"/><line style="stroke:#181818;stroke-width:1.0;" x1="384.25" x2="396.25" y1="217.978" y2="217.978"/><polygon fill="#181818" points="392.25,273.304,396.25,283.304,400.25,273.304,396.25,277.304" style="stroke:#181818;stroke-width:1.0;"/><line style="stroke:#181818;stroke-width:1.0;" x1="396.25" x2="396.25" y1="217.978" y2="343.1391"/><line style="stroke:#181818;stroke-width:1.0;" x1="396.25" x2="326.25" y1="343.1391" y2="343.1391"/><polygon fill="#181818" points="336.25,339.1391,326.25,343.1391,336.25,347.1391,332.25,343.1391" style="stroke:#181818;stroke-width:1.0;"/><line style="stroke:#181818;stroke-width:1.0;" x1="314.25" x2="314.25" y1="311.1391" y2="331.1391"/><polygon fill="#181818" points="310.25,321.1391,314.25,331.1391,318.25,321.1391,314.25,325.1391" style="stroke:#181818;stroke-width:1.0;"/><line style="stroke:#181818;stroke-width:1.0;" x1="314.25" x2="314.25" y1="182.9961" y2="202.9961"/><polygon fill="#181818" points="310.25,192.9961,314.25,202.9961,318.25,192.9961,314.25,196.9961" style="stroke:#181818;stroke-width:1.0;"/><line style="stroke:#181818;stroke-width:1.0;" x1="229" x2="115" y1="62" y2="62"/><line style="stroke:#181818;stroke-width:1.0;" x1="115" x2="115" y1="62" y2="113.9638"/><polygon fill="#181818" points="111,103.9638,115,113.9638,119,103.9638,115,107.9638" style="stroke:#181818;stroke-width:1.0;"/><text fill="#000000" font-family="arial" font-size="11" lengthAdjust="spacing" textLength="48" x="115" y="92.2499">0 (cekani)</text><line style="stroke:#181818;stroke-width:1.0;" x1="397" x2="513.5" y1="62" y2="62"/><line style="stroke:#181818;stroke-width:1.0;" x1="513.5" x2="513.5" y1="62" y2="113.9638"/><polygon fill="#181818" points="509.5,103.9638,513.5,113.9638,517.5,103.9638,513.5,107.9638" style="stroke:#181818;stroke-width:1.0;"/><text fill="#000000" font-family="arial" font-size="11" lengthAdjust="spacing" textLength="70" x="513.5" y="92.2499">neplatny stav</text><line style="stroke:#181818;stroke-width:1.0;" x1="313" x2="313" y1="74" y2="87.3213"/><line style="stroke:#181818;stroke-width:1.0;" x1="313" x2="314.25" y1="87.3213" y2="87.3213"/><line style="stroke:#181818;stroke-width:1.0;" x1="314.25" x2="314.25" y1="87.3213" y2="113.9638"/><polygon fill="#181818" points="310.25,103.9638,314.25,113.9638,318.25,103.9638,314.25,107.9638" style="stroke:#181818;stroke-width:1.0;"/><text fill="#000000" font-family="arial" font-size="11" lengthAdjust="spacing" textLength="97" x="313" y="93.2499">10 (Zapnuty mixer)</text><line style="stroke:#181818;stroke-width:1.0;" x1="115" x2="115" y1="182.9961" y2="387.1391"/><line style="stroke:#181818;stroke-width:1.0;" x1="115" x2="301" y1="387.1391" y2="387.1391"/><polygon fill="#181818" points="291,383.1391,301,387.1391,291,391.1391,295,387.1391" style="stroke:#181818;stroke-width:1.0;"/><line style="stroke:#181818;stroke-width:1.0;" x1="513.5" x2="513.5" y1="166.652" y2="387.1391"/><line style="stroke:#181818;stroke-width:1.0;" x1="513.5" x2="325" y1="387.1391" y2="387.1391"/><polygon fill="#181818" points="335,383.1391,325,387.1391,335,391.1391,331,387.1391" style="stroke:#181818;stroke-width:1.0;"/><line style="stroke:#181818;stroke-width:1.0;" x1="314.25" x2="314.25" y1="355.1391" y2="360.1391"/><line style="stroke:#181818;stroke-width:1.0;" x1="314.25" x2="313" y1="360.1391" y2="360.1391"/><line style="stroke:#181818;stroke-width:1.0;" x1="313" x2="313" y1="360.1391" y2="375.1391"/><polygon fill="#181818" points="309,365.1391,313,375.1391,317,365.1391,313,369.1391" style="stroke:#181818;stroke-width:1.0;"/><line style="stroke:#181818;stroke-width:1.0;" x1="313" x2="313" y1="30" y2="50"/><polygon fill="#181818" points="309,40,313,50,317,40,313,44" style="stroke:#181818;stroke-width:1.0;"/><line style="stroke:#181818;stroke-width:1.0;" x1="313" x2="313" y1="399.1391" y2="419.1391"/><polygon fill="#181818" points="309,409.1391,313,419.1391,317,409.1391,313,413.1391" style="stroke:#181818;stroke-width:1.0;"/><!--SRC=[RP5HRzem4CVV_IdSxYL84wORe0dQIK3BNe1sWKxQAXHTR8TO93xaNDYoQTzzJaYbCg4ynFU_kz_zVRvIEZ5My_MtB-ogFJ-7Y_bZk9ni-7Lnt5spsuAgJ7zc8CaS3LNt1dOESlw7JK7kTmvBgsQOeUFlaYJv82MRebFQjPeQniF1aCtHKglqcc05kURW36HC6SZHgal4-MJsyTE0BRonLedxmq6l_uONPxxfV-HV_ocKPQujNU2I0riSmFciBxmLxHLPGU38_tuQaYaFrWH73YLX3bJoG0W9XUx79H5Q8JeTLiSywF50wZrOuvNHcvBHtKsF2V7oqXMvYY9dVcjhegXU9DfkIdd6dr3bnkwhxLQ82wMPYHsuAefajS-gKykiFcwtGKnsNTjzlz1gYdvU7ffTIg5M7I76hFLsuytzW8CjgUAv-QLTxR7fuyiwBFrKXKiaTAExJVZyqFXezZ230eyWN-KnCmaFxZ46BayPpSjOfnduXitZAcfutQz-CPnIRNdmNHT-s3bhFbci7zZPadfZfhFQwmexJ5jbabVpLXyo85jnppXwr9FJCaN55V83IY0jhKcnoTRtEAVMZZtjz9QiVbiy_0C0]--></g></svg>