<?xml version="1.0" encoding="us-ascii" standalone="no"?><svg xmlns="http://www.w3.org/2000/svg" xmlns:xlink="http://www.w3.org/1999/xlink" contentStyleType="text/css" height="642px" preserveAspectRatio="none" style="width:633px;height:642px;" version="1.1" viewBox="0 0 633 642" width="633px" zoomAndPan="magnify"><defs/><g><ellipse cx="302.5" cy="20" fill="#FFF2CC" rx="10" ry="10" style="stroke:#222222;stroke-width:1.0;"/><rect fill="#FFF2CC" height="52.6882" rx="12.5" ry="12.5" style="stroke:#181818;stroke-width:0.5;" width="184" x="210.5" y="50"/><text fill="#000000" font-family="arial" font-size="12" lengthAdjust="spacing" textLength="164" x="220.5" y="72.8281">recepty.status.loaded:=FALSE</text><text fill="#000000" font-family="arial" font-size="12" lengthAdjust="spacing" textLength="159" x="220.5" y="89.1722">recepty.status.saved:=FALSE</text><rect fill="#FFF2CC" height="36.3441" rx="12.5" ry="12.5" style="stroke:#181818;stroke-width:0.5;" width="175" x="215" y="221.6701"/><text fill="#000000" font-family="arial" font-size="12" lengthAdjust="spacing" textLength="155" x="225" y="244.4982">recepty.status.saved:=TRUE</text><polygon fill="#FAC385" points="32,172.1792,573,172.1792,585,184.1792,573,196.1792,32,196.1792,20,184.1792,32,172.1792" style="stroke:#B46504;stroke-width:0.5;"/><text fill="#000000" font-family="arial" font-size="11" lengthAdjust="spacing" textLength="17" x="306.5" y="207.9381">Yes</text><text fill="#000000" font-family="arial" font-size="11" font-style="italic" lengthAdjust="spacing" textLength="541" x="32" y="188.4471">(MpRecipeXml_Semafor.CommandDone)ANDNOT(MpRecipeXml_Semafor.ErrorORMpRecipeRegPar_Semafor.Error)</text><text fill="#000000" font-family="arial" font-size="11" lengthAdjust="spacing" textLength="15" x="585" y="180.9562">No</text><polygon fill="#FAC385" points="302.5,278.0142,314.5,290.0142,302.5,302.0142,290.5,290.0142,302.5,278.0142" style="stroke:#B46504;stroke-width:0.5;"/><polygon fill="#FAC385" points="261.5,122.6882,343.5,122.6882,355.5,134.6882,343.5,146.6882,261.5,146.6882,249.5,134.6882,261.5,122.6882" style="stroke:#B46504;stroke-width:0.5;"/><text fill="#000000" font-family="arial" font-size="11" lengthAdjust="spacing" textLength="17" x="306.5" y="158.4471">Yes</text><text fill="#000000" font-family="arial" font-size="11" font-style="italic" lengthAdjust="spacing" textLength="82" x="261.5" y="138.9562">recepty.cmd.save</text><text fill="#000000" font-family="arial" font-size="11" lengthAdjust="spacing" textLength="15" x="355.5" y="131.4653">No</text><polygon fill="#FAC385" points="302.5,322.0142,314.5,334.0142,302.5,346.0142,290.5,334.0142,302.5,322.0142" style="stroke:#B46504;stroke-width:0.5;"/><rect fill="#FFF2CC" height="36.3441" rx="12.5" ry="12.5" style="stroke:#181818;stroke-width:0.5;" width="180" x="212.5" y="464.9961"/><text fill="#000000" font-family="arial" font-size="12" lengthAdjust="spacing" textLength="160" x="222.5" y="487.8242">recepty.status.loaded:=TRUE</text><polygon fill="#FAC385" points="32,415.5052,573,415.5052,585,427.5052,573,439.5052,32,439.5052,20,427.5052,32,415.5052" style="stroke:#B46504;stroke-width:0.5;"/><text fill="#000000" font-family="arial" font-size="11" lengthAdjust="spacing" textLength="17" x="306.5" y="451.2641">Yes</text><text fill="#000000" font-family="arial" font-size="11" font-style="italic" lengthAdjust="spacing" textLength="541" x="32" y="431.7731">(MpRecipeXml_Semafor.CommandDone)ANDNOT(MpRecipeXml_Semafor.ErrorORMpRecipeRegPar_Semafor.Error)</text><text fill="#000000" font-family="arial" font-size="11" lengthAdjust="spacing" textLength="15" x="585" y="424.2822">No</text><polygon fill="#FAC385" points="302.5,521.3402,314.5,533.3402,302.5,545.3402,290.5,533.3402,302.5,521.3402" style="stroke:#B46504;stroke-width:0.5;"/><polygon fill="#FAC385" points="261.5,366.0142,343.5,366.0142,355.5,378.0142,343.5,390.0142,261.5,390.0142,249.5,378.0142,261.5,366.0142" style="stroke:#B46504;stroke-width:0.5;"/><text fill="#000000" font-family="arial" font-size="11" lengthAdjust="spacing" textLength="17" x="306.5" y="401.7731">Yes</text><text fill="#000000" font-family="arial" font-size="11" font-style="italic" lengthAdjust="spacing" textLength="82" x="261.5" y="382.2822">recepty.cmd.load</text><text fill="#000000" font-family="arial" font-size="11" lengthAdjust="spacing" textLength="15" x="355.5" y="374.7913">No</text><polygon fill="#FAC385" points="302.5,565.3402,314.5,577.3402,302.5,589.3402,290.5,577.3402,302.5,565.3402" style="stroke:#B46504;stroke-width:0.5;"/><ellipse cx="302.5" cy="620.3402" fill="none" rx="11" ry="11" style="stroke:#222222;stroke-width:1.0;"/><ellipse cx="302.5" cy="620.3402" fill="#FFF2CC" rx="6" ry="6" style="stroke:#222222;stroke-width:1.0;"/><line style="stroke:#181818;stroke-width:1.0;" x1="302.5" x2="302.5" y1="30" y2="50"/><polygon fill="#181818" points="298.5,40,302.5,50,306.5,40,302.5,44" style="stroke:#181818;stroke-width:1.0;"/><line style="stroke:#181818;stroke-width:1.0;" x1="302.5" x2="302.5" y1="196.1792" y2="221.6701"/><polygon fill="#181818" points="298.5,211.6701,302.5,221.6701,306.5,211.6701,302.5,215.6701" style="stroke:#181818;stroke-width:1.0;"/><line style="stroke:#181818;stroke-width:1.0;" x1="585" x2="597" y1="184.1792" y2="184.1792"/><polygon fill="#181818" points="593,229.8422,597,239.8422,601,229.8422,597,233.8422" style="stroke:#181818;stroke-width:1.0;"/><line style="stroke:#181818;stroke-width:1.0;" x1="597" x2="597" y1="184.1792" y2="290.0142"/><line style="stroke:#181818;stroke-width:1.0;" x1="597" x2="314.5" y1="290.0142" y2="290.0142"/><polygon fill="#181818" points="324.5,286.0142,314.5,290.0142,324.5,294.0142,320.5,290.0142" style="stroke:#181818;stroke-width:1.0;"/><line style="stroke:#181818;stroke-width:1.0;" x1="302.5" x2="302.5" y1="258.0142" y2="278.0142"/><polygon fill="#181818" points="298.5,268.0142,302.5,278.0142,306.5,268.0142,302.5,272.0142" style="stroke:#181818;stroke-width:1.0;"/><line style="stroke:#181818;stroke-width:1.0;" x1="302.5" x2="302.5" y1="146.6882" y2="172.1792"/><polygon fill="#181818" points="298.5,162.1792,302.5,172.1792,306.5,162.1792,302.5,166.1792" style="stroke:#181818;stroke-width:1.0;"/><line style="stroke:#181818;stroke-width:1.0;" x1="355.5" x2="607" y1="134.6882" y2="134.6882"/><polygon fill="#181818" points="603,229.8422,607,239.8422,611,229.8422,607,233.8422" style="stroke:#181818;stroke-width:1.0;"/><line style="stroke:#181818;stroke-width:1.0;" x1="607" x2="607" y1="134.6882" y2="334.0142"/><line style="stroke:#181818;stroke-width:1.0;" x1="607" x2="314.5" y1="334.0142" y2="334.0142"/><polygon fill="#181818" points="324.5,330.0142,314.5,334.0142,324.5,338.0142,320.5,334.0142" style="stroke:#181818;stroke-width:1.0;"/><line style="stroke:#181818;stroke-width:1.0;" x1="302.5" x2="302.5" y1="302.0142" y2="322.0142"/><polygon fill="#181818" points="298.5,312.0142,302.5,322.0142,306.5,312.0142,302.5,316.0142" style="stroke:#181818;stroke-width:1.0;"/><line style="stroke:#181818;stroke-width:1.0;" x1="302.5" x2="302.5" y1="102.6882" y2="122.6882"/><polygon fill="#181818" points="298.5,112.6882,302.5,122.6882,306.5,112.6882,302.5,116.6882" style="stroke:#181818;stroke-width:1.0;"/><line style="stroke:#181818;stroke-width:1.0;" x1="302.5" x2="302.5" y1="439.5052" y2="464.9961"/><polygon fill="#181818" points="298.5,454.9961,302.5,464.9961,306.5,454.9961,302.5,458.9961" style="stroke:#181818;stroke-width:1.0;"/><line style="stroke:#181818;stroke-width:1.0;" x1="585" x2="597" y1="427.5052" y2="427.5052"/><polygon fill="#181818" points="593,473.1682,597,483.1682,601,473.1682,597,477.1682" style="stroke:#181818;stroke-width:1.0;"/><line style="stroke:#181818;stroke-width:1.0;" x1="597" x2="597" y1="427.5052" y2="533.3402"/><line style="stroke:#181818;stroke-width:1.0;" x1="597" x2="314.5" y1="533.3402" y2="533.3402"/><polygon fill="#181818" points="324.5,529.3402,314.5,533.3402,324.5,537.3402,320.5,533.3402" style="stroke:#181818;stroke-width:1.0;"/><line style="stroke:#181818;stroke-width:1.0;" x1="302.5" x2="302.5" y1="501.3402" y2="521.3402"/><polygon fill="#181818" points="298.5,511.3402,302.5,521.3402,306.5,511.3402,302.5,515.3402" style="stroke:#181818;stroke-width:1.0;"/><line style="stroke:#181818;stroke-width:1.0;" x1="302.5" x2="302.5" y1="390.0142" y2="415.5052"/><polygon fill="#181818" points="298.5,405.5052,302.5,415.5052,306.5,405.5052,302.5,409.5052" style="stroke:#181818;stroke-width:1.0;"/><line style="stroke:#181818;stroke-width:1.0;" x1="355.5" x2="607" y1="378.0142" y2="378.0142"/><polygon fill="#181818" points="603,473.1682,607,483.1682,611,473.1682,607,477.1682" style="stroke:#181818;stroke-width:1.0;"/><line style="stroke:#181818;stroke-width:1.0;" x1="607" x2="607" y1="378.0142" y2="577.3402"/><line style="stroke:#181818;stroke-width:1.0;" x1="607" x2="314.5" y1="577.3402" y2="577.3402"/><polygon fill="#181818" points="324.5,573.3402,314.5,577.3402,324.5,581.3402,320.5,577.3402" style="stroke:#181818;stroke-width:1.0;"/><line style="stroke:#181818;stroke-width:1.0;" x1="302.5" x2="302.5" y1="545.3402" y2="565.3402"/><polygon fill="#181818" points="298.5,555.3402,302.5,565.3402,306.5,555.3402,302.5,559.3402" style="stroke:#181818;stroke-width:1.0;"/><line style="stroke:#181818;stroke-width:1.0;" x1="302.5" x2="302.5" y1="346.0142" y2="366.0142"/><polygon fill="#181818" points="298.5,356.0142,302.5,366.0142,306.5,356.0142,302.5,360.0142" style="stroke:#181818;stroke-width:1.0;"/><line style="stroke:#181818;stroke-width:1.0;" x1="302.5" x2="302.5" y1="589.3402" y2="609.3402"/><polygon fill="#181818" points="298.5,599.3402,302.5,609.3402,306.5,599.3402,302.5,603.3402" style="stroke:#181818;stroke-width:1.0;"/><!--SRC=[pL7BJiCm4BpxAznoIIvD1Ms4Ia5A7-7I1qfR12UqZJV18hOZswrK8VuTKwK8qXmu8b-yC-FP7M-BOSObqjNZFMbLzqqoYvV9F5hJjjddRJ8qzb3W7O7KyZstXmc7N8EWxsG4wLkkrKwoiIgKfXTPbbscAHafpL1N60ktOJyaiPAsGhh7OW42AMWE1M4SX9AioJ6EnbVNVJ9pWrN8jXVskxqVVjl2FQfRVhZ3LBeJA6s3hzKWJGdQiKuu3Ag8n5ZGbf21nXHBU-YuskvCfr30a0rkusYscf8QQM3_pTqGdb4l24wILB0Z7mG-jQyegVUCngz4thnCCEKbFedYPOK2CgKxOoK4I3PH4lreCLairusogTPAkorLL8Bv0-ZVh5zhEcYUUvritDXO6AJUGla49UCPEGVEWttzIgt7_qXsMjTVexcrg_8J]--></g></svg>