<?xml version="1.0" encoding="us-ascii" standalone="no"?><svg xmlns="http://www.w3.org/2000/svg" xmlns:xlink="http://www.w3.org/1999/xlink" contentStyleType="text/css" height="755px" preserveAspectRatio="none" style="width:633px;height:755px;" version="1.1" viewBox="0 0 633 755" width="633px" zoomAndPan="magnify"><defs/><g><ellipse cx="302.5" cy="20" fill="#FFF2CC" rx="10" ry="10" style="stroke:#222222;stroke-width:1.0;"/><rect fill="#FFF2CC" height="36.3441" rx="12.5" ry="12.5" style="stroke:#181818;stroke-width:0.5;" width="74" x="265.5" y="50"/><a href="./md__rizeni__podminky.html" target="_top" title="./md__rizeni__podminky.html" xlink:actuate="onRequest" xlink:href="./md__rizeni__podminky.html" xlink:show="new" xlink:title="./md__rizeni__podminky.html" xlink:type="simple"><text fill="#0000FF" font-family="arial" font-size="12" lengthAdjust="spacing" text-decoration="underline" textLength="54" x="275.5" y="72.8281">Podminky</text></a><rect fill="#FFF2CC" height="36.3441" rx="12.5" ry="12.5" style="stroke:#181818;stroke-width:0.5;" width="215" x="195" y="106.3441"/><a href="./md__rizeni__library__cykly.html" target="_top" title="./md__rizeni__library__cykly.html" xlink:actuate="onRequest" xlink:href="./md__rizeni__library__cykly.html" xlink:show="new" xlink:title="./md__rizeni__library__cykly.html" xlink:type="simple"><text fill="#0000FF" font-family="arial" font-size="12" lengthAdjust="spacing" text-decoration="underline" textLength="29" x="205" y="129.1722">Cykly</text></a><text fill="#000000" font-family="arial" font-size="12" lengthAdjust="spacing" textLength="166" x="234" y="129.1722">(btnStart,LedBottomRightRed)</text><rect fill="#FFF2CC" height="52.6882" rx="12.5" ry="12.5" style="stroke:#181818;stroke-width:0.5;" width="184" x="210.5" y="162.6882"/><text fill="#000000" font-family="arial" font-size="12" lengthAdjust="spacing" textLength="164" x="220.5" y="185.5163">recepty.status.loaded:=FALSE</text><text fill="#000000" font-family="arial" font-size="12" lengthAdjust="spacing" textLength="159" x="220.5" y="201.8604">recepty.status.saved:=FALSE</text><rect fill="#FFF2CC" height="36.3441" rx="12.5" ry="12.5" style="stroke:#181818;stroke-width:0.5;" width="175" x="215" y="334.3583"/><text fill="#000000" font-family="arial" font-size="12" lengthAdjust="spacing" textLength="155" x="225" y="357.1864">recepty.status.saved:=TRUE</text><polygon fill="#FAC385" points="32,284.8674,573,284.8674,585,296.8674,573,308.8674,32,308.8674,20,296.8674,32,284.8674" style="stroke:#B46504;stroke-width:0.5;"/><text fill="#000000" font-family="arial" font-size="11" lengthAdjust="spacing" textLength="17" x="306.5" y="320.6263">Yes</text><text fill="#000000" font-family="arial" font-size="11" font-style="italic" lengthAdjust="spacing" textLength="541" x="32" y="301.1354">(MpRecipeXml_Semafor.CommandDone)ANDNOT(MpRecipeXml_Semafor.ErrorORMpRecipeRegPar_Semafor.Error)</text><text fill="#000000" font-family="arial" font-size="11" lengthAdjust="spacing" textLength="15" x="585" y="293.6444">No</text><polygon fill="#FAC385" points="302.5,390.7025,314.5,402.7025,302.5,414.7025,290.5,402.7025,302.5,390.7025" style="stroke:#B46504;stroke-width:0.5;"/><polygon fill="#FAC385" points="261.5,235.3765,343.5,235.3765,355.5,247.3765,343.5,259.3765,261.5,259.3765,249.5,247.3765,261.5,235.3765" style="stroke:#B46504;stroke-width:0.5;"/><text fill="#000000" font-family="arial" font-size="11" lengthAdjust="spacing" textLength="17" x="306.5" y="271.1354">Yes</text><text fill="#000000" font-family="arial" font-size="11" font-style="italic" lengthAdjust="spacing" textLength="82" x="261.5" y="251.6444">recepty.cmd.save</text><text fill="#000000" font-family="arial" font-size="11" lengthAdjust="spacing" textLength="15" x="355.5" y="244.1535">No</text><polygon fill="#FAC385" points="302.5,434.7025,314.5,446.7025,302.5,458.7025,290.5,446.7025,302.5,434.7025" style="stroke:#B46504;stroke-width:0.5;"/><rect fill="#FFF2CC" height="36.3441" rx="12.5" ry="12.5" style="stroke:#181818;stroke-width:0.5;" width="180" x="212.5" y="577.6843"/><text fill="#000000" font-family="arial" font-size="12" lengthAdjust="spacing" textLength="160" x="222.5" y="600.5124">recepty.status.loaded:=TRUE</text><polygon fill="#FAC385" points="32,528.1934,573,528.1934,585,540.1934,573,552.1934,32,552.1934,20,540.1934,32,528.1934" style="stroke:#B46504;stroke-width:0.5;"/><text fill="#000000" font-family="arial" font-size="11" lengthAdjust="spacing" textLength="17" x="306.5" y="563.9523">Yes</text><text fill="#000000" font-family="arial" font-size="11" font-style="italic" lengthAdjust="spacing" textLength="541" x="32" y="544.4614">(MpRecipeXml_Semafor.CommandDone)ANDNOT(MpRecipeXml_Semafor.ErrorORMpRecipeRegPar_Semafor.Error)</text><text fill="#000000" font-family="arial" font-size="11" lengthAdjust="spacing" textLength="15" x="585" y="536.9704">No</text><polygon fill="#FAC385" points="302.5,634.0285,314.5,646.0285,302.5,658.0285,290.5,646.0285,302.5,634.0285" style="stroke:#B46504;stroke-width:0.5;"/><polygon fill="#FAC385" points="261.5,478.7025,343.5,478.7025,355.5,490.7025,343.5,502.7025,261.5,502.7025,249.5,490.7025,261.5,478.7025" style="stroke:#B46504;stroke-width:0.5;"/><text fill="#000000" font-family="arial" font-size="11" lengthAdjust="spacing" textLength="17" x="306.5" y="514.4614">Yes</text><text fill="#000000" font-family="arial" font-size="11" font-style="italic" lengthAdjust="spacing" textLength="82" x="261.5" y="494.9704">recepty.cmd.load</text><text fill="#000000" font-family="arial" font-size="11" lengthAdjust="spacing" textLength="15" x="355.5" y="487.4795">No</text><polygon fill="#FAC385" points="302.5,678.0285,314.5,690.0285,302.5,702.0285,290.5,690.0285,302.5,678.0285" style="stroke:#B46504;stroke-width:0.5;"/><ellipse cx="302.5" cy="733.0285" fill="none" rx="11" ry="11" style="stroke:#222222;stroke-width:1.0;"/><ellipse cx="302.5" cy="733.0285" fill="#FFF2CC" rx="6" ry="6" style="stroke:#222222;stroke-width:1.0;"/><line style="stroke:#181818;stroke-width:1.0;" x1="302.5" x2="302.5" y1="30" y2="50"/><polygon fill="#181818" points="298.5,40,302.5,50,306.5,40,302.5,44" style="stroke:#181818;stroke-width:1.0;"/><line style="stroke:#181818;stroke-width:1.0;" x1="302.5" x2="302.5" y1="86.3441" y2="106.3441"/><polygon fill="#181818" points="298.5,96.3441,302.5,106.3441,306.5,96.3441,302.5,100.3441" style="stroke:#181818;stroke-width:1.0;"/><line style="stroke:#181818;stroke-width:1.0;" x1="302.5" x2="302.5" y1="142.6882" y2="162.6882"/><polygon fill="#181818" points="298.5,152.6882,302.5,162.6882,306.5,152.6882,302.5,156.6882" style="stroke:#181818;stroke-width:1.0;"/><line style="stroke:#181818;stroke-width:1.0;" x1="302.5" x2="302.5" y1="308.8674" y2="334.3583"/><polygon fill="#181818" points="298.5,324.3583,302.5,334.3583,306.5,324.3583,302.5,328.3583" style="stroke:#181818;stroke-width:1.0;"/><line style="stroke:#181818;stroke-width:1.0;" x1="585" x2="597" y1="296.8674" y2="296.8674"/><polygon fill="#181818" points="593,342.5304,597,352.5304,601,342.5304,597,346.5304" style="stroke:#181818;stroke-width:1.0;"/><line style="stroke:#181818;stroke-width:1.0;" x1="597" x2="597" y1="296.8674" y2="402.7025"/><line style="stroke:#181818;stroke-width:1.0;" x1="597" x2="314.5" y1="402.7025" y2="402.7025"/><polygon fill="#181818" points="324.5,398.7025,314.5,402.7025,324.5,406.7025,320.5,402.7025" style="stroke:#181818;stroke-width:1.0;"/><line style="stroke:#181818;stroke-width:1.0;" x1="302.5" x2="302.5" y1="370.7025" y2="390.7025"/><polygon fill="#181818" points="298.5,380.7025,302.5,390.7025,306.5,380.7025,302.5,384.7025" style="stroke:#181818;stroke-width:1.0;"/><line style="stroke:#181818;stroke-width:1.0;" x1="302.5" x2="302.5" y1="259.3765" y2="284.8674"/><polygon fill="#181818" points="298.5,274.8674,302.5,284.8674,306.5,274.8674,302.5,278.8674" style="stroke:#181818;stroke-width:1.0;"/><line style="stroke:#181818;stroke-width:1.0;" x1="355.5" x2="607" y1="247.3765" y2="247.3765"/><polygon fill="#181818" points="603,342.5304,607,352.5304,611,342.5304,607,346.5304" style="stroke:#181818;stroke-width:1.0;"/><line style="stroke:#181818;stroke-width:1.0;" x1="607" x2="607" y1="247.3765" y2="446.7025"/><line style="stroke:#181818;stroke-width:1.0;" x1="607" x2="314.5" y1="446.7025" y2="446.7025"/><polygon fill="#181818" points="324.5,442.7025,314.5,446.7025,324.5,450.7025,320.5,446.7025" style="stroke:#181818;stroke-width:1.0;"/><line style="stroke:#181818;stroke-width:1.0;" x1="302.5" x2="302.5" y1="414.7025" y2="434.7025"/><polygon fill="#181818" points="298.5,424.7025,302.5,434.7025,306.5,424.7025,302.5,428.7025" style="stroke:#181818;stroke-width:1.0;"/><line style="stroke:#181818;stroke-width:1.0;" x1="302.5" x2="302.5" y1="215.3765" y2="235.3765"/><polygon fill="#181818" points="298.5,225.3765,302.5,235.3765,306.5,225.3765,302.5,229.3765" style="stroke:#181818;stroke-width:1.0;"/><line style="stroke:#181818;stroke-width:1.0;" x1="302.5" x2="302.5" y1="552.1934" y2="577.6843"/><polygon fill="#181818" points="298.5,567.6843,302.5,577.6843,306.5,567.6843,302.5,571.6843" style="stroke:#181818;stroke-width:1.0;"/><line style="stroke:#181818;stroke-width:1.0;" x1="585" x2="597" y1="540.1934" y2="540.1934"/><polygon fill="#181818" points="593,585.8564,597,595.8564,601,585.8564,597,589.8564" style="stroke:#181818;stroke-width:1.0;"/><line style="stroke:#181818;stroke-width:1.0;" x1="597" x2="597" y1="540.1934" y2="646.0285"/><line style="stroke:#181818;stroke-width:1.0;" x1="597" x2="314.5" y1="646.0285" y2="646.0285"/><polygon fill="#181818" points="324.5,642.0285,314.5,646.0285,324.5,650.0285,320.5,646.0285" style="stroke:#181818;stroke-width:1.0;"/><line style="stroke:#181818;stroke-width:1.0;" x1="302.5" x2="302.5" y1="614.0285" y2="634.0285"/><polygon fill="#181818" points="298.5,624.0285,302.5,634.0285,306.5,624.0285,302.5,628.0285" style="stroke:#181818;stroke-width:1.0;"/><line style="stroke:#181818;stroke-width:1.0;" x1="302.5" x2="302.5" y1="502.7025" y2="528.1934"/><polygon fill="#181818" points="298.5,518.1934,302.5,528.1934,306.5,518.1934,302.5,522.1934" style="stroke:#181818;stroke-width:1.0;"/><line style="stroke:#181818;stroke-width:1.0;" x1="355.5" x2="607" y1="490.7025" y2="490.7025"/><polygon fill="#181818" points="603,585.8564,607,595.8564,611,585.8564,607,589.8564" style="stroke:#181818;stroke-width:1.0;"/><line style="stroke:#181818;stroke-width:1.0;" x1="607" x2="607" y1="490.7025" y2="690.0285"/><line style="stroke:#181818;stroke-width:1.0;" x1="607" x2="314.5" y1="690.0285" y2="690.0285"/><polygon fill="#181818" points="324.5,686.0285,314.5,690.0285,324.5,694.0285,320.5,690.0285" style="stroke:#181818;stroke-width:1.0;"/><line style="stroke:#181818;stroke-width:1.0;" x1="302.5" x2="302.5" y1="658.0285" y2="678.0285"/><polygon fill="#181818" points="298.5,668.0285,302.5,678.0285,306.5,668.0285,302.5,672.0285" style="stroke:#181818;stroke-width:1.0;"/><line style="stroke:#181818;stroke-width:1.0;" x1="302.5" x2="302.5" y1="458.7025" y2="478.7025"/><polygon fill="#181818" points="298.5,468.7025,302.5,478.7025,306.5,468.7025,302.5,472.7025" style="stroke:#181818;stroke-width:1.0;"/><line style="stroke:#181818;stroke-width:1.0;" x1="302.5" x2="302.5" y1="702.0285" y2="722.0285"/><polygon fill="#181818" points="298.5,712.0285,302.5,722.0285,306.5,712.0285,302.5,716.0285" style="stroke:#181818;stroke-width:1.0;"/><!--SRC=[pL9DJ-Cm4BtxLnZsaaWeGK0hLDYL-a6vb8BIWdQ5giYn9wbLVqGJjr90_7TSP5PBsmF7bIypxps_cR7dI40f3T3Pqoqv2l5ZDXdVPtVzEJrkDjKnkMvSg-0NOTp9ZNJjIB8AcQQlPC3ugaAxDc9ebKNweopBCyx9mA8039Ze5jrEbuojSG4v_KYcJ0DbA9aYGZ9jZJZaEEuFpoyxPE8R2qXnqUsSNlpZLoX_QTVopHzX-Lg3SGTy7JBJr0mzwuNNQHYHD8wX8wJt_9oaMkGvoXSmCizhAxGqgpPPEgteGyWMYwjzgP85CcppdBSh5IuCj-5Y4HNEpBOLJYOW1jOvgpDPBLq68lPE21ngroQ-2RTk4cMP0D7xEUvFPZTaXspOvYztHMH9epJzb70jFlWqZQbRWg7H7sZY88hkwWouhE6tLlaCD2ij9aEhDJDYP0t4_UbeUZy_ABj1jEXN8r0PL0yClxBnJj7UuRxdsQDl6rG3D9hQc80HiYJxmFvWsrVPgV5_JFRvNTyTpU-QhTy1]--></g></svg>