<?xml version="1.0" encoding="UTF-8" standalone="no"?>
<!DOCTYPE svg PUBLIC "-//W3C//DTD SVG 1.1//EN"
 "http://www.w3.org/Graphics/SVG/1.1/DTD/svg11.dtd">
<!-- Generated by graphviz version 2.43.0 (0)
 -->
<!-- Title: Libraries/runtime Pages: 1 -->
<svg width="256pt" height="111pt"
 viewBox="0.00 0.00 256.00 111.00" xmlns="http://www.w3.org/2000/svg" xmlns:xlink="http://www.w3.org/1999/xlink">
<g id="graph0" class="graph" transform="scale(1 1) rotate(0) translate(4 107)">
<title>Libraries/runtime</title>
<polygon fill="white" stroke="transparent" points="-4,4 -4,-107 252,-107 252,4 -4,4"/>
<g id="clust1" class="cluster">
<title>clusterdir_6d2d5b60bd20db849a9486835a2715aa</title>
<g id="a_clust1"><a xlink:href="dir_6d2d5b60bd20db849a9486835a2715aa.html" target="_top" xlink:title="Libraries">
<polygon fill="#edf0f7" stroke="#404040" stroke-dasharray="5,2" points="8,-8 8,-95 240,-95 240,-8 8,-8"/>
<text text-anchor="middle" x="124" y="-83" font-family="Helvetica,sans-Serif" font-size="10.00">Libraries</text>
</a>
</g>
</g>
<g id="clust2" class="cluster">
<title>clusterdir_d30d0e0bc14697557030d1cca9793765</title>
<g id="a_clust2"><a xlink:href="dir_d30d0e0bc14697557030d1cca9793765.html" target="_top">
<polygon fill="#edf0f7" stroke="#404040" stroke-width="2" points="16,-16 16,-68 232,-68 232,-16 16,-16"/>
</a>
</g>
</g>
<!-- dir_d30d0e0bc14697557030d1cca9793765 -->
<g id="node1" class="node">
<title>dir_d30d0e0bc14697557030d1cca9793765</title>
<text text-anchor="middle" x="196" y="-39.5" font-family="Helvetica,sans-Serif" font-size="10.00">runtime</text>
</g>
<!-- dir_15a1fa4f2887d0b434c2bf82c45e0a91 -->
<g id="node2" class="node">
<title>dir_15a1fa4f2887d0b434c2bf82c45e0a91</title>
<g id="a_node2"><a xlink:href="dir_15a1fa4f2887d0b434c2bf82c45e0a91.html" target="_top" xlink:title="SG3">
<polygon fill="#a2b4d6" stroke="#404040" points="150,-60 96,-60 96,-24 150,-24 150,-60"/>
<text text-anchor="middle" x="123" y="-39.5" font-family="Helvetica,sans-Serif" font-size="10.00">SG3</text>
</a>
</g>
</g>
<!-- dir_ca0d53a4176c5aba78e7900e43e762b0 -->
<g id="node3" class="node">
<title>dir_ca0d53a4176c5aba78e7900e43e762b0</title>
<g id="a_node3"><a xlink:href="dir_ca0d53a4176c5aba78e7900e43e762b0.html" target="_top" xlink:title="SG4">
<polygon fill="#a2b4d6" stroke="#404040" points="78,-60 24,-60 24,-24 78,-24 78,-60"/>
<text text-anchor="middle" x="51" y="-39.5" font-family="Helvetica,sans-Serif" font-size="10.00">SG4</text>
</a>
</g>
</g>
</g>
</svg>
