<?xml version="1.0" encoding="us-ascii" standalone="no"?><svg xmlns="http://www.w3.org/2000/svg" xmlns:xlink="http://www.w3.org/1999/xlink" contentStyleType="text/css" height="488px" preserveAspectRatio="none" style="width:1041px;height:488px;" version="1.1" viewBox="0 0 1041 488" width="1041px" zoomAndPan="magnify"><defs/><g><ellipse cx="537" cy="20" fill="#FFF2CC" rx="10" ry="10" style="stroke:#222222;stroke-width:1.0;"/><polygon fill="#FAC385" points="501.5,50,572.5,50,584.5,62,572.5,74,501.5,74,489.5,62,501.5,50" style="stroke:#B46504;stroke-width:0.5;"/><text fill="#000000" font-family="arial" font-size="11" lengthAdjust="spacing" textLength="3" x="504.5" y="66.268">(</text><text fill="#000000" font-family="arial" font-size="11" font-style="italic" lengthAdjust="spacing" textLength="62" x="507.5" y="66.268">caseSemafor</text><text fill="#000000" font-family="arial" font-size="11" lengthAdjust="spacing" textLength="3" x="569.5" y="66.268">)</text><rect fill="#FFF2CC" height="101.7206" rx="12.5" ry="12.5" style="stroke:#181818;stroke-width:0.5;" width="285" x="11" y="113.9638"/><text fill="#000000" font-family="arial" font-size="12" lengthAdjust="spacing" textLength="136" x="21" y="136.7919">recepty.cmd.load:=TRUE</text><text fill="#000000" font-family="arial" font-size="12" font-style="italic" lengthAdjust="spacing" textLength="235" x="21" y="153.136">doLedRed:=semafor[CEKEJ_NA_ZAPNUTI].red</text><text fill="#000000" font-family="arial" font-size="12" font-style="italic" lengthAdjust="spacing" textLength="265" x="21" y="169.4801">doLedYellow:=semafor[CEKEJ_NA_ZAPNUTI].yellow</text><text fill="#000000" font-family="arial" font-size="12" font-style="italic" lengthAdjust="spacing" textLength="260" x="21" y="185.8242">doLedGreen:=semafor[CEKEJ_NA_ZAPNUTI].green</text><text fill="#000000" font-family="arial" font-size="12" font-style="italic" lengthAdjust="spacing" textLength="89" x="21" y="202.1683">startTON:=FALSE</text><rect fill="#FFF2CC" height="52.6882" rx="12.5" ry="12.5" style="stroke:#181818;stroke-width:0.5;" width="134" x="86.5" y="294.6843"/><text fill="#000000" font-family="arial" font-size="12" lengthAdjust="spacing" textLength="114" x="96.5" y="317.5124">caseSemafor:=STOP</text><text fill="#000000" font-family="arial" font-size="12" font-style="italic" lengthAdjust="spacing" textLength="89" x="96.5" y="333.8566">startTON:=FALSE</text><polygon fill="#FAC385" points="72,245.1934,235,245.1934,247,257.1934,235,269.1934,72,269.1934,60,257.1934,72,245.1934" style="stroke:#B46504;stroke-width:0.5;"/><text fill="#000000" font-family="arial" font-size="11" lengthAdjust="spacing" textLength="17" x="157.5" y="280.9523">Yes</text><text fill="#000000" font-family="arial" font-size="11" font-style="italic" lengthAdjust="spacing" textLength="163" x="72" y="261.4614">btnStartANDrecepty.status.loaded</text><text fill="#000000" font-family="arial" font-size="11" lengthAdjust="spacing" textLength="15" x="247" y="253.9704">No</text><polygon fill="#FAC385" points="153.5,367.3726,165.5,379.3726,153.5,391.3726,141.5,379.3726,153.5,367.3726" style="stroke:#B46504;stroke-width:0.5;"/><rect fill="#FFF2CC" height="52.6882" rx="12.5" ry="12.5" style="stroke:#181818;stroke-width:0.5;" width="162" x="306" y="163.4547"/><text fill="#000000" font-family="arial" font-size="12" lengthAdjust="spacing" textLength="142" x="316" y="186.2828">caseSemafor:=PRIPRAVIT</text><text fill="#000000" font-family="arial" font-size="12" font-style="italic" lengthAdjust="spacing" textLength="89" x="316" y="202.6269">startTON:=FALSE</text><polygon fill="#FAC385" points="348,113.9638,426,113.9638,438,125.9638,426,137.9638,348,137.9638,336,125.9638,348,113.9638" style="stroke:#B46504;stroke-width:0.5;"/><text fill="#000000" font-family="arial" font-size="11" lengthAdjust="spacing" textLength="17" x="391" y="149.7227">Yes</text><text fill="#000000" font-family="arial" font-size="11" font-style="italic" lengthAdjust="spacing" textLength="78" x="348" y="130.2317">TON_Semafor.Q</text><text fill="#000000" font-family="arial" font-size="11" lengthAdjust="spacing" textLength="15" x="438" y="122.7408">No</text><polygon fill="#FAC385" points="387,236.1429,399,248.1429,387,260.1429,375,248.1429,387,236.1429" style="stroke:#B46504;stroke-width:0.5;"/><rect fill="#FFF2CC" height="52.6882" rx="12.5" ry="12.5" style="stroke:#181818;stroke-width:0.5;" width="144" x="520" y="163.4547"/><text fill="#000000" font-family="arial" font-size="12" lengthAdjust="spacing" textLength="124" x="530" y="186.2828">caseSemafor:=VOLNO</text><text fill="#000000" font-family="arial" font-size="12" font-style="italic" lengthAdjust="spacing" textLength="89" x="530" y="202.6269">startTON:=FALSE</text><polygon fill="#FAC385" points="553,113.9638,631,113.9638,643,125.9638,631,137.9638,553,137.9638,541,125.9638,553,113.9638" style="stroke:#B46504;stroke-width:0.5;"/><text fill="#000000" font-family="arial" font-size="11" lengthAdjust="spacing" textLength="17" x="596" y="149.7227">Yes</text><text fill="#000000" font-family="arial" font-size="11" font-style="italic" lengthAdjust="spacing" textLength="78" x="553" y="130.2317">TON_Semafor.Q</text><text fill="#000000" font-family="arial" font-size="11" lengthAdjust="spacing" textLength="15" x="643" y="122.7408">No</text><polygon fill="#FAC385" points="592,236.1429,604,248.1429,592,260.1429,580,248.1429,592,236.1429" style="stroke:#B46504;stroke-width:0.5;"/><rect fill="#FFF2CC" height="52.6882" rx="12.5" ry="12.5" style="stroke:#181818;stroke-width:0.5;" width="159" x="688" y="163.4547"/><text fill="#000000" font-family="arial" font-size="12" lengthAdjust="spacing" textLength="139" x="698" y="186.2828">caseSemafor:=ZASTAVIT</text><text fill="#000000" font-family="arial" font-size="12" font-style="italic" lengthAdjust="spacing" textLength="89" x="698" y="202.6269">startTON:=FALSE</text><polygon fill="#FAC385" points="728.5,113.9638,806.5,113.9638,818.5,125.9638,806.5,137.9638,728.5,137.9638,716.5,125.9638,728.5,113.9638" style="stroke:#B46504;stroke-width:0.5;"/><text fill="#000000" font-family="arial" font-size="11" lengthAdjust="spacing" textLength="17" x="771.5" y="149.7227">Yes</text><text fill="#000000" font-family="arial" font-size="11" font-style="italic" lengthAdjust="spacing" textLength="78" x="728.5" y="130.2317">TON_Semafor.Q</text><text fill="#000000" font-family="arial" font-size="11" lengthAdjust="spacing" textLength="15" x="818.5" y="122.7408">No</text><polygon fill="#FAC385" points="767.5,236.1429,779.5,248.1429,767.5,260.1429,755.5,248.1429,767.5,236.1429" style="stroke:#B46504;stroke-width:0.5;"/><rect fill="#FFF2CC" height="52.6882" rx="12.5" ry="12.5" style="stroke:#181818;stroke-width:0.5;" width="134" x="871" y="163.4547"/><text fill="#000000" font-family="arial" font-size="12" lengthAdjust="spacing" textLength="114" x="881" y="186.2828">caseSemafor:=STOP</text><text fill="#000000" font-family="arial" font-size="12" font-style="italic" lengthAdjust="spacing" textLength="89" x="881" y="202.6269">startTON:=FALSE</text><polygon fill="#FAC385" points="899,113.9638,977,113.9638,989,125.9638,977,137.9638,899,137.9638,887,125.9638,899,113.9638" style="stroke:#B46504;stroke-width:0.5;"/><text fill="#000000" font-family="arial" font-size="11" lengthAdjust="spacing" textLength="17" x="942" y="149.7227">Yes</text><text fill="#000000" font-family="arial" font-size="11" font-style="italic" lengthAdjust="spacing" textLength="78" x="899" y="130.2317">TON_Semafor.Q</text><text fill="#000000" font-family="arial" font-size="11" lengthAdjust="spacing" textLength="15" x="989" y="122.7408">No</text><polygon fill="#FAC385" points="938,236.1429,950,248.1429,938,260.1429,926,248.1429,938,236.1429" style="stroke:#B46504;stroke-width:0.5;"/><polygon fill="#FAC385" points="537,411.3726,537,411.3726,549,423.3726,537,435.3726,537,435.3726,525,423.3726,537,411.3726" style="stroke:#B46504;stroke-width:0.5;"/><ellipse cx="537" cy="466.3726" fill="none" rx="11" ry="11" style="stroke:#222222;stroke-width:1.0;"/><ellipse cx="537" cy="466.3726" fill="#FFF2CC" rx="6" ry="6" style="stroke:#222222;stroke-width:1.0;"/><line style="stroke:#181818;stroke-width:1.0;" x1="153.5" x2="153.5" y1="269.1934" y2="294.6843"/><polygon fill="#181818" points="149.5,284.6843,153.5,294.6843,157.5,284.6843,153.5,288.6843" style="stroke:#181818;stroke-width:1.0;"/><line style="stroke:#181818;stroke-width:1.0;" x1="247" x2="259" y1="257.1934" y2="257.1934"/><polygon fill="#181818" points="255,311.0285,259,321.0285,263,311.0285,259,315.0285" style="stroke:#181818;stroke-width:1.0;"/><line style="stroke:#181818;stroke-width:1.0;" x1="259" x2="259" y1="257.1934" y2="379.3726"/><line style="stroke:#181818;stroke-width:1.0;" x1="259" x2="165.5" y1="379.3726" y2="379.3726"/><polygon fill="#181818" points="175.5,375.3726,165.5,379.3726,175.5,383.3726,171.5,379.3726" style="stroke:#181818;stroke-width:1.0;"/><line style="stroke:#181818;stroke-width:1.0;" x1="153.5" x2="153.5" y1="347.3726" y2="367.3726"/><polygon fill="#181818" points="149.5,357.3726,153.5,367.3726,157.5,357.3726,153.5,361.3726" style="stroke:#181818;stroke-width:1.0;"/><line style="stroke:#181818;stroke-width:1.0;" x1="153.5" x2="153.5" y1="215.6843" y2="245.1934"/><polygon fill="#181818" points="149.5,235.1934,153.5,245.1934,157.5,235.1934,153.5,239.1934" style="stroke:#181818;stroke-width:1.0;"/><line style="stroke:#181818;stroke-width:1.0;" x1="387" x2="387" y1="137.9638" y2="163.4547"/><polygon fill="#181818" points="383,153.4547,387,163.4547,391,153.4547,387,157.4547" style="stroke:#181818;stroke-width:1.0;"/><line style="stroke:#181818;stroke-width:1.0;" x1="438" x2="478" y1="125.9638" y2="125.9638"/><polygon fill="#181818" points="474,179.7988,478,189.7988,482,179.7988,478,183.7988" style="stroke:#181818;stroke-width:1.0;"/><line style="stroke:#181818;stroke-width:1.0;" x1="478" x2="478" y1="125.9638" y2="248.1429"/><line style="stroke:#181818;stroke-width:1.0;" x1="478" x2="399" y1="248.1429" y2="248.1429"/><polygon fill="#181818" points="409,244.1429,399,248.1429,409,252.1429,405,248.1429" style="stroke:#181818;stroke-width:1.0;"/><line style="stroke:#181818;stroke-width:1.0;" x1="387" x2="387" y1="216.1429" y2="236.1429"/><polygon fill="#181818" points="383,226.1429,387,236.1429,391,226.1429,387,230.1429" style="stroke:#181818;stroke-width:1.0;"/><line style="stroke:#181818;stroke-width:1.0;" x1="592" x2="592" y1="137.9638" y2="163.4547"/><polygon fill="#181818" points="588,153.4547,592,163.4547,596,153.4547,592,157.4547" style="stroke:#181818;stroke-width:1.0;"/><line style="stroke:#181818;stroke-width:1.0;" x1="643" x2="674" y1="125.9638" y2="125.9638"/><polygon fill="#181818" points="670,179.7988,674,189.7988,678,179.7988,674,183.7988" style="stroke:#181818;stroke-width:1.0;"/><line style="stroke:#181818;stroke-width:1.0;" x1="674" x2="674" y1="125.9638" y2="248.1429"/><line style="stroke:#181818;stroke-width:1.0;" x1="674" x2="604" y1="248.1429" y2="248.1429"/><polygon fill="#181818" points="614,244.1429,604,248.1429,614,252.1429,610,248.1429" style="stroke:#181818;stroke-width:1.0;"/><line style="stroke:#181818;stroke-width:1.0;" x1="592" x2="592" y1="216.1429" y2="236.1429"/><polygon fill="#181818" points="588,226.1429,592,236.1429,596,226.1429,592,230.1429" style="stroke:#181818;stroke-width:1.0;"/><line style="stroke:#181818;stroke-width:1.0;" x1="767.5" x2="767.5" y1="137.9638" y2="163.4547"/><polygon fill="#181818" points="763.5,153.4547,767.5,163.4547,771.5,153.4547,767.5,157.4547" style="stroke:#181818;stroke-width:1.0;"/><line style="stroke:#181818;stroke-width:1.0;" x1="818.5" x2="857" y1="125.9638" y2="125.9638"/><polygon fill="#181818" points="853,179.7988,857,189.7988,861,179.7988,857,183.7988" style="stroke:#181818;stroke-width:1.0;"/><line style="stroke:#181818;stroke-width:1.0;" x1="857" x2="857" y1="125.9638" y2="248.1429"/><line style="stroke:#181818;stroke-width:1.0;" x1="857" x2="779.5" y1="248.1429" y2="248.1429"/><polygon fill="#181818" points="789.5,244.1429,779.5,248.1429,789.5,252.1429,785.5,248.1429" style="stroke:#181818;stroke-width:1.0;"/><line style="stroke:#181818;stroke-width:1.0;" x1="767.5" x2="767.5" y1="216.1429" y2="236.1429"/><polygon fill="#181818" points="763.5,226.1429,767.5,236.1429,771.5,226.1429,767.5,230.1429" style="stroke:#181818;stroke-width:1.0;"/><line style="stroke:#181818;stroke-width:1.0;" x1="938" x2="938" y1="137.9638" y2="163.4547"/><polygon fill="#181818" points="934,153.4547,938,163.4547,942,153.4547,938,157.4547" style="stroke:#181818;stroke-width:1.0;"/><line style="stroke:#181818;stroke-width:1.0;" x1="989" x2="1015" y1="125.9638" y2="125.9638"/><polygon fill="#181818" points="1011,179.7988,1015,189.7988,1019,179.7988,1015,183.7988" style="stroke:#181818;stroke-width:1.0;"/><line style="stroke:#181818;stroke-width:1.0;" x1="1015" x2="1015" y1="125.9638" y2="248.1429"/><line style="stroke:#181818;stroke-width:1.0;" x1="1015" x2="950" y1="248.1429" y2="248.1429"/><polygon fill="#181818" points="960,244.1429,950,248.1429,960,252.1429,956,248.1429" style="stroke:#181818;stroke-width:1.0;"/><line style="stroke:#181818;stroke-width:1.0;" x1="938" x2="938" y1="216.1429" y2="236.1429"/><polygon fill="#181818" points="934,226.1429,938,236.1429,942,226.1429,938,230.1429" style="stroke:#181818;stroke-width:1.0;"/><line style="stroke:#181818;stroke-width:1.0;" x1="489.5" x2="153.5" y1="62" y2="62"/><line style="stroke:#181818;stroke-width:1.0;" x1="153.5" x2="153.5" y1="62" y2="113.9638"/><polygon fill="#181818" points="149.5,103.9638,153.5,113.9638,157.5,103.9638,153.5,107.9638" style="stroke:#181818;stroke-width:1.0;"/><text fill="#000000" font-family="arial" font-size="11" lengthAdjust="spacing" textLength="100" x="153.5" y="92.2499">CEKEJ_NA_ZAPNUTI</text><line style="stroke:#181818;stroke-width:1.0;" x1="584.5" x2="938" y1="62" y2="62"/><line style="stroke:#181818;stroke-width:1.0;" x1="938" x2="938" y1="62" y2="113.9638"/><polygon fill="#181818" points="934,103.9638,938,113.9638,942,103.9638,938,107.9638" style="stroke:#181818;stroke-width:1.0;"/><text fill="#000000" font-family="arial" font-size="11" lengthAdjust="spacing" textLength="49" x="938" y="92.2499">ZASTAVIT</text><line style="stroke:#181818;stroke-width:1.0;" x1="387" x2="387" y1="62" y2="113.9638"/><polygon fill="#181818" points="383,103.9638,387,113.9638,391,103.9638,387,107.9638" style="stroke:#181818;stroke-width:1.0;"/><text fill="#000000" font-family="arial" font-size="11" lengthAdjust="spacing" textLength="28" x="387" y="87.2499">STOP</text><line style="stroke:#181818;stroke-width:1.0;" x1="537" x2="537" y1="74" y2="87.3213"/><line style="stroke:#181818;stroke-width:1.0;" x1="537" x2="592" y1="87.3213" y2="87.3213"/><line style="stroke:#181818;stroke-width:1.0;" x1="592" x2="592" y1="87.3213" y2="113.9638"/><polygon fill="#181818" points="588,103.9638,592,113.9638,596,103.9638,592,107.9638" style="stroke:#181818;stroke-width:1.0;"/><text fill="#000000" font-family="arial" font-size="11" lengthAdjust="spacing" textLength="56" x="537" y="93.2499">PRIPRAVIT</text><line style="stroke:#181818;stroke-width:1.0;" x1="767.5" x2="767.5" y1="62" y2="113.9638"/><polygon fill="#181818" points="763.5,103.9638,767.5,113.9638,771.5,103.9638,767.5,107.9638" style="stroke:#181818;stroke-width:1.0;"/><text fill="#000000" font-family="arial" font-size="11" lengthAdjust="spacing" textLength="39" x="767.5" y="87.2499">VOLNO</text><line style="stroke:#181818;stroke-width:1.0;" x1="153.5" x2="153.5" y1="391.3726" y2="423.3726"/><line style="stroke:#181818;stroke-width:1.0;" x1="153.5" x2="525" y1="423.3726" y2="423.3726"/><polygon fill="#181818" points="515,419.3726,525,423.3726,515,427.3726,519,423.3726" style="stroke:#181818;stroke-width:1.0;"/><line style="stroke:#181818;stroke-width:1.0;" x1="938" x2="938" y1="260.1429" y2="423.3726"/><line style="stroke:#181818;stroke-width:1.0;" x1="938" x2="549" y1="423.3726" y2="423.3726"/><polygon fill="#181818" points="559,419.3726,549,423.3726,559,427.3726,555,423.3726" style="stroke:#181818;stroke-width:1.0;"/><line style="stroke:#181818;stroke-width:1.0;" x1="387" x2="387" y1="260.1429" y2="423.3726"/><polygon fill="#181818" points="383,413.3726,387,423.3726,391,413.3726,387,417.3726" style="stroke:#181818;stroke-width:1.0;"/><line style="stroke:#181818;stroke-width:1.0;" x1="592" x2="592" y1="260.1429" y2="378.0123"/><line style="stroke:#181818;stroke-width:1.0;" x1="592" x2="537" y1="378.0123" y2="378.0123"/><line style="stroke:#181818;stroke-width:1.0;" x1="537" x2="537" y1="378.0123" y2="411.3726"/><polygon fill="#181818" points="533,401.3726,537,411.3726,541,401.3726,537,405.3726" style="stroke:#181818;stroke-width:1.0;"/><line style="stroke:#181818;stroke-width:1.0;" x1="767.5" x2="767.5" y1="260.1429" y2="423.3726"/><polygon fill="#181818" points="763.5,413.3726,767.5,423.3726,771.5,413.3726,767.5,417.3726" style="stroke:#181818;stroke-width:1.0;"/><line style="stroke:#181818;stroke-width:1.0;" x1="537" x2="537" y1="30" y2="50"/><polygon fill="#181818" points="533,40,537,50,541,40,537,44" style="stroke:#181818;stroke-width:1.0;"/><line style="stroke:#181818;stroke-width:1.0;" x1="537" x2="537" y1="435.3726" y2="455.3726"/><polygon fill="#181818" points="533,445.3726,537,455.3726,541,445.3726,537,449.3726" style="stroke:#181818;stroke-width:1.0;"/><!--SRC=[bLDTQzim57s_lq9jN-ANg7HD65apSDEaPFFir7O2xHX1aQvJCLiAij8IIlzxPTVPIWa1emT9L-T3vmgT2CoaGf8iRk6aMS_ZO1B5l_oKd9PFwrEuAkqkn-_0k9LFqkvk95iRLf0Nk6RyxzhehH8ZdMj3ph8ik-0ShhKHQ9gQwA_wlJvCjB9DvRpUXAn0menaEGZ92gt48SM9F_hojGU1krXJMLtsU-UN7_HMkIDzbdnrGsY-BL3P0xhMC5Lkc76d3dX5cuXGMcOibC_IyaVI8HrAEIinmO9bsb3gUL3jIMSq_Zd-iGpzvOC_2-Vfr8E1GOuRk-loGdHppSHWcCRpCL0gT80YHbSettL-VsR_wHeKbEwnzvZd-laOV5SZ_ZDk3Q8wHbXNW1fV9qoZS32S-44oflGRWCogf2khakhG3s_sMHpORiiwJdL1ZzX7LAHpZwKB_A4pWs6IHhF3wfXN3Gkr1wY4pA3fO4Nm6cT7M3PAtRkZDhDuEelznJHjvVMFrTvm4GLXrCgiPhGtUl2Jj7MmFQczNOltSjFxXm2eFeZUl040]--></g></svg>